<svg xmlns="http://www.w3.org/2000/svg" width="1150" height="34"><path fill="#FFF" d="M1121.3 0c-14.4 0-14.4 14-28.7 14s-14.4-14-28.7-14-14.4 14-28.7 14c-14.4 0-14.4-14-28.8-14S992 14 977.7 14 963.1 0 948.8 0 934.4 14 920 14 905.6 0 891.3 0s-14.4 14-28.7 14-14.5-14-28.8-14c-14.4 0-14.4 14-28.7 14-14.4 0-14.4-14-28.8-14s-14.4 14-28.7 14c-14.4 0-14.4-14-28.7-14S704.4 14 690 14c-14.4 0-14.4-14-28.7-14-14.4 0-14.4 14-28.7 14-14.4 0-14.4-14-28.8-14s-14.4 14-28.7 14c-14.4 0-14.4-14-28.7-14S532 14 517.7 14C503.3 14 503.3 0 489 0c-14.4 0-14.4 14-28.8 14S445.8 0 431.4 0 417 14 402.6 14 388.2 0 373.8 0 359.4 14 345 14 330.7 0 316.3 0s-14.4 14-28.8 14-14.4-14-28.8-14-14.4 14-28.7 14c-14.4 0-14.4-14-28.8-14s-14.4 14-28.8 14S158 0 143.6 0s-14.4 14-28.8 14S100.4 0 86 0 71.9 14 57.5 14 43.1 0 28.8 0 14.4 14 0 14v20h1150V14c-14.4 0-14.4-14-28.7-14z"/></svg>